<svg id="Capa_1" enable-background="new 0 0 512 512" height="512" viewBox="0 0 512 512" width="512" xmlns="http://www.w3.org/2000/svg" fill="#212297"><g ><path d="m496.5 149.097h-83.4c-8.547 0-15.5 6.953-15.5 15.5v25.134 25.634h-18.133v-147.422l26.523-18.945c4.139-2.956 6.609-7.758 6.609-12.844v-20.358c0-5.939-3.28-11.316-8.562-14.034-5.278-2.717-11.561-2.262-16.395 1.191l-328.944 234.959c-3.37 2.408-4.151 7.092-1.743 10.463 2.407 3.371 7.091 4.149 10.462 1.744l328.944-234.961c.125-.089.387-.277.814-.059.425.219.425.541.425.696v20.358c0 .252-.122.49-.328.638l-381.034 272.168c-.126.088-.389.276-.814.059-.424-.219-.424-.542-.424-.697v-20.358c0-.253.123-.492.328-.638l22.089-15.777c3.37-2.408 4.151-7.092 1.744-10.463-2.407-3.369-7.091-4.153-10.463-1.744l-22.09 15.779c-4.137 2.957-6.608 7.758-6.608 12.843v20.358c0 5.939 3.28 11.316 8.561 14.034 2.288 1.178 4.765 1.759 7.231 1.759 3.223 0 6.427-.994 9.165-2.95l107.576-76.84v103.575h-17.35c-8.703 0-15.783 7.08-15.783 15.783v24.85 25.634h-83.9c-8.547 0-15.5 6.953-15.5 15.5v25.133 33.134c0 13.27 10.796 24.066 24.066 24.066h67.834c4.143 0 7.5-3.357 7.5-7.5s-3.357-7.5-7.5-7.5h-67.834c-4.999 0-9.066-4.067-9.066-9.066v-25.634h83.617.283c8.547 0 15.5-6.953 15.5-15.5v-.283-24.85-25.634h18.133v17.35c0 8.703 7.08 15.784 15.783 15.784h16.566c8.703 0 15.784-7.081 15.784-15.784v-17.35h17.35c8.703 0 15.783-7.08 15.783-15.783v-24.85-25.634h83.617.283c8.547 0 15.5-6.953 15.5-15.5v-.283-24.851-25.633h18.133v17.35c0 8.703 7.081 15.783 15.784 15.783h16.566c8.703 0 15.783-7.08 15.783-15.783v-17.35h17.35c8.703 0 15.783-7.08 15.783-15.783v-24.85-25.634h84.402v290.7c0 4.999-4.067 9.066-9.066 9.066h-25.634v-125.6c0-12.958-10.542-23.5-23.5-23.5h-117.1c-12.958 0-23.5 10.542-23.5 23.5v125.6h-176.3c-4.143 0-7.5 3.357-7.5 7.5s3.357 7.5 7.5 7.5h183.8 33.133 82.834 33.133 33.134c13.271 0 24.066-10.796 24.066-24.066v-298.2-25.134c0-8.547-6.953-15.5-15.5-15.5zm-150.167 347.901v-100.467c0-.275.225-.5.5-.5h66.834c.275 0 .5.225.5.5v100.467zm82.834 0v-100.467c0-8.547-6.953-15.5-15.5-15.5h-66.834c-8.547 0-15.5 6.953-15.5 15.5v100.467h-18.133v-125.6c0-4.686 3.814-8.5 8.5-8.5h117.1c4.686 0 8.5 3.814 8.5 8.5v125.6zm-64.7-396.055-18.134 12.952v-22.285l18.134-12.953zm-66.267 130.205v24.85 25.633h-83.9c-8.547 0-15.5 6.953-15.5 15.5v25.134 25.634h-18.133v-137.956l150.666-107.618v113.041h-17.35c-8.703-.001-15.783 7.079-15.783 15.782zm-132.533-10.491v22.286l-18.134 12.953v-22.286zm-150.667 226.641v-17.633c0-.275.225-.5.5-.5h83.9v17.35c0 .432-.352.783-.783.783zm99.4-66.267v-17.35c0-.432.352-.783.783-.783h17.35v18.133zm51.267 32.35c0 .433-.352.784-.784.784h-16.566c-.432 0-.783-.352-.783-.784v-139.052l18.134-12.953v152.005zm33.133-33.133c0 .432-.352.783-.783.783h-17.35v-18.133h18.133zm15-65.484v-17.634c0-.275.225-.5.5-.5h83.9v17.351c0 .432-.352.783-.783.783zm99.4-66.266v-17.35c0-.432.352-.783.783-.783h17.35v18.133zm51.267 32.349c0 .432-.352.783-.783.783h-16.566c-.433 0-.784-.352-.784-.783v-24.83c0-.007.001-.013.001-.019s-.001-.013-.001-.019v-123.65l18.134-12.952v161.47zm33.133-33.132c0 .432-.352.783-.783.783h-17.35v-18.133h18.133zm15-65.484v-17.634c0-.275.225-.5.5-.5h83.4c.275 0 .5.225.5.5v17.634z"/><path d="m392.675 439.014h-4.142c-4.143 0-7.5 3.357-7.5 7.5s3.357 7.5 7.5 7.5h4.142c4.143 0 7.5-3.357 7.5-7.5 0-4.142-3.358-7.5-7.5-7.5z"/></g></svg>